<svg xmlns="http://www.w3.org/2000/svg" width="70.948" height="69.797" viewBox="0 0 70.948 69.797"><g transform="translate(-4081.951 -2961.902)"><path d="M135.482,612.668c-9.2,8.67,3.918,16.659,12.592,19.275l-49.926.372c-4.4-8.745-8.422-16.776-12.142-24.151,12.255,2.668,26.691,8.227,46.888-12.352,2.828-2.607,15.34-14.8,11.78-22.06,12.43,9.21,8.379,18.3,6.041,22.06-4.448,7.167-11.325,12.277-15.232,16.856" transform="translate(3999.641 2399.384)" fill="#465862"/><path d="M105.629,579.031c10.3-5.948-6.023-8.9-6.023-8.9l30.357.084s10.431,6.989,15.632,10.316c-23.349-5.1-37.209,6.138-49.814,14.409-3.19,2.35-9.272,7.1-8.373,18.147-5.093-11.063-1.826-19.563,2.227-23.859S105.629,579.031,105.629,579.031Z" transform="translate(3997.147 2391.774)" fill="#ed3137"/></g></svg>